<svg xmlns="http://www.w3.org/2000/svg" xmlns:xlink="http://www.w3.org/1999/xlink" width="333.333" height="333.333" xmlns:v="https://vecta.io/nano"><defs><mask id="A"><path d="M 304 156.5 A 149 149 0 1 1  6,156.5 A 149 149 0 1 1  304 156.5 z" transform="matrix(.996644 0 0 .996644 2.02013 .525168)" opacity="1" fill="#fff" fill-opacity="1" fill-rule="evenodd" stroke="none" stroke-width="1.505" stroke-linecap="round" stroke-linejoin="round" stroke-miterlimit="4" stroke-dasharray="none" stroke-dashoffset="0" stroke-opacity="1"/></mask><radialGradient id="B" cx="105.23" cy="100.923" fx="105.23" fy="100.923" r="149" gradientTransform="matrix(2.573416,0,0,2.573416,-163.9033,-160.6078)" gradientUnits="userSpaceOnUse"><stop offset="0" stop-color="#002" stop-opacity="0"/><stop offset="1" stop-color="#002" stop-opacity=".39"/></radialGradient><path id="C" d="M305 154.5c0 82.014-66.486 148.5-148.5 148.5S8 236.514 8 154.5 74.486 6 156.5 6 305 72.486 305 154.5z"/></defs><g fill-rule="evenodd"><path d="M304.173 301.802c0 5.08-60.378 9.198-134.859 9.198s-134.859-4.118-134.859-9.198 60.378-9.198 134.859-9.198 134.859 4.118 134.859 9.198z" fill-opacity=".179"/><path d="M263.664 301.389c0 3.025-39.466 5.477-88.149 5.477s-88.149-2.452-88.149-5.477 39.466-5.477 88.149-5.477 88.149 2.452 88.149 5.477z" fill-opacity=".179"/><path d="M281.852 301.612c0 4.133-49.089 7.484-109.644 7.484s-109.644-3.351-109.644-7.484 49.089-7.484 109.644-7.484 109.644 3.351 109.644 7.484z" fill-opacity=".179"/><use xlink:href="#C" fill="#fff"/><use xlink:href="#C" fill="url(#B)"/></g><g mask="url(#A)" transform="translate(0 -2)"><g fill="none"><g stroke="#000"><path d="M592.817 448.412c-6.755-10.521-13.273-15.379-26.136-18.614" transform="matrix(.650569 0 0 .650569 -87.30901 -182.4046)" stroke-width="2.306"/><g stroke-width="1.5"><path d="M50 45.375l13.5 13.75M48 92c-30.657 21.956-38.125 66.506-37 66.25m76-63c-3.161 23.337 5.251 48.914 22.75 76.25m-80.625 35.375c14.427 14.424 33.602 12.21 51.625 12.625m43.878 45.359c-3.122 8.252-2.315 19.684-.53 31.908M103.061 28.42c11.477-11.491 36.095-18.908 68.236-22.274m66.026 43.929c-7.987-14.876-22.058-26.565-36.948-37.825m-72.389 41.802c17.643 1.987 49.487 4.601 74.777 18.915M222.5 124c-15.122 20.853-33.378 40.314-54.5 58.5m9.5 55.75c19.358 10.801 40.561 15.445 66.25 11.25m24.75-113c9.881 18.552 11.331 44.887 12.75 71.25m-3.5-111c8.139.274 16.027 4.574 23.5 15.5"/></g></g></g><g fill-rule="evenodd"><path d="M40.25 98c20.654 3.619 29.153 2.16 46.25 3.75 10.107-13.262 27.262-30.048 45.25-47.25-7.424-11.585-14.431-23.441-23.25-30.75-22.39 7.591-38.335 16.939-53.5 26.5C45.482 66.824 40.435 82.759 40.25 98zM198 70.75l21.25 57.75c17.726 4.681 36.626 10.301 51.25 12.5 4.701-9.437 7.811-27.624 11.25-44-11.68-18.118-28.341-33.746-45.25-49.25-12.436 4.485-25.404 13.229-38.5 23zM106.75 167L173 178.25c6.636 20.833 7.494 41.667 9.75 62.5-16.41 13.636-39.039 17.942-59 26.25-23.226-15.013-32.683-31.748-46-48 7.647-17.586 16.082-35.073 29-52zM1.061 148.805c.032 1.048 8.047 2.226 10.96 1.061 3.346 21.418 7.729 42.145 19.445 57.983-2.294 11.223-.134 20.22 3.182 28.638-20.318 5.695-18.552 8.774-26.517 12.374m67.529 35.532c19.311 5.113 33.379 15.037 48.26 9.899 4.377 6.2 16.486 10.684 48.083 12.021l-85.913 7.601m213.535-101.289c-5.637-4.154-11.469-8.114-18.75-10.625-14.5 19.317-29 41.308-43.5 48.25-.267 11.909-2.123 22.547-7.375 30.469 10.951.739 22.389.699 35-1.219"/></g></g><use xlink:href="#C" fill="none" stroke="#000" stroke-width="1.5" stroke-linejoin="round"/></svg>